<?xml version="1.0" encoding="UTF-8" standalone="no"?><svg xmlns:rdf="http://www.w3.org/1999/02/22-rdf-syntax-ns#" xmlns="http://www.w3.org/2000/svg" height="165.17" viewBox="0 0 150 132.13344" width="187.5" version="1.1" xmlns:cc="http://creativecommons.org/ns#" xmlns:dc="http://purl.org/dc/elements/1.1/"><path
     d="m 85.63,13.58193 c 2.08,-4.9100003 4.44,-10.5300003 9.51,-12.99000032 3.81,-0.61 8.67,-1.49 11.62,1.69000002 5.36,5.01 6.86,12.7700003 6.54,19.8200003 -1.06,14.27 -5.02,28.34 -12,40.86 3.8,2.95 7.45,6.76 12.5,7.3 12.55,1.54 24.81,-3.06 36.2,-7.79 l 0,8.29 c -7.79,2.95 -15.78,5.76 -24.06,6.88 -6.18,0.22 -12.66,0.92 -18.57,-1.28 -3.55,-1.57 -6.51,-4.15 -9.56,-6.5 -2.5,4 -5.47,7.68 -8.3,11.45 -2.725278,3.711883 -6.926404,2.73064 -10.63,0.62 -0.73,-0.08 -2.19,-0.23 -2.92,-0.3 -3.28,3.76 -5.88,8.77 -11.04,10.23 -6.71,2.69 -15.38,-3.51 -14.2,-10.83 1.18,-4.66 5.74,-7.65 10.28,-8.41 3.67,-0.5 7.38,-0.01 11.05,0.25 2.77,-5.79 2.721182,-10.362951 2.54,-18.83 -1.240587,-10.597617 -0.820605,-15.499963 -9.758818,-22.212878 -6.87,-1.53 -15.852933,10.741714 -18.791182,17.132878 4.2,9.32 5.34,20.36 1.54,30 -1.47,3.93 -5.19,7.25 -9.59,6.95 -4.27,0.51 -7.6,-3.17 -9.05,-6.8 -2.99,-9.9 -0.03,-20.88 6.04,-29.02 0.58,-0.7 1.26,-2.16 0,-2.63 -5.62,-5.39 -15.63,-4.97 -20.57,1.1 -5.4,6.35 -9.52,13.66 -14.41,20.39 l 0,-13.37 c 4.75,-6.53 8.7,-14.88 16.79,-17.78 8.26,-3.18 18.35,-1.43 24.41,5.24 C 45.803538,35.810179 53.092951,22.110235 65.01352,23.771994 76.119982,23.619052 80.61,39.957833 82.2,53.28193 c 0.392356,8.235289 0.64,14.73 -2.82,21.16 1.51,0.62 3.03,1.24 4.55,1.85 2.72,-3.91 6.14,-7.46 7.91,-11.94 -10.69,-14.4 -12.01,-34.15 -6.21,-50.77 z"
     id="path4"
     inkscape:connector-curvature="0"
     style="fill:#1a171b"
     sodipodi:nodetypes="ccccccccccccccccccccccccccccccccccccc" />
  <path
     d="m 97.74,7.7521297 c 1.53,-0.32 3.71,-0.88 4.63,0.82 4.04,4.9300003 3.42,11.6900003 2.99,17.6300003 -1.42,10.67 -4.43,21.15 -9.36,30.75 -5.75,-9.46 -7.55,-21.19 -5.45,-32.02 0.99,-6.14 2.81,-12.57 7.19,-17.1800003 z"
     id="path6"
     inkscape:connector-curvature="0"
     style="fill:#ffffff" />
  <path
     d="m 35.73,65.99193 c 1.11,-3.73 2.49,-7.38 4.57,-10.69 2.79,6.54 2.93,14.11 0.31,20.73 -0.44,1.35 -1.76,2.07 -2.69,3.03 -3.61,-3.38 -2.37,-8.69 -2.19,-13.07 z"
     id="path8"
     inkscape:connector-curvature="0"
     style="fill:#ffffff" />
  <path
     d="m 58.08,81.86193 c 2.69,-1.56 5.7,-2.44 8.84,-2.13 -0.06,0.44 -0.19,1.34 -0.25,1.78 -1.66,1.42 -3.16,3.67 -5.65,3.31 -1.76,0.17 -2.52,-1.59 -2.94,-2.96 z"
     id="path10"
     inkscape:connector-curvature="0"
     style="fill:#ffffff" /></svg>
