<?xml version="1.0" encoding="utf-8"?>
<!-- Generator: Adobe Illustrator 16.0.4, SVG Export Plug-In . SVG Version: 6.00 Build 0)  -->
<!DOCTYPE svg PUBLIC "-//W3C//DTD SVG 1.1//EN" "http://www.w3.org/Graphics/SVG/1.1/DTD/svg11.dtd">
<svg version="1.1"
	 id="Ebene_1" xmlns:rdf="http://www.w3.org/1999/02/22-rdf-syntax-ns#" xmlns:cc="http://creativecommons.org/ns#" xmlns:dc="http://purl.org/dc/elements/1.1/"
	 xmlns="http://www.w3.org/2000/svg" xmlns:xlink="http://www.w3.org/1999/xlink" x="0px" y="0px" width="187.5px"
	 height="165.17px" viewBox="0 0 187.5 165.17" enable-background="new 0 0 187.5 165.17" xml:space="preserve">
<path d="M187.5,121.849c-5.371-1.185-10.141-2.966-13.822-5.164c-3.464-2.066-8.336-5.422-13.236-10.264
	c14.337-33.951,24.736-76.653,14.326-92.496c-2.74-4.168-6.798-6.371-11.738-6.371c-16.52,0-24.697,12.778-28.223,44.104
	c-2.961,26.295,6.433,44.541,16.922,56.367c-0.083,0.203-0.166,0.412-0.257,0.633c-11.286,27.861-21.725,43.383-31.023,46.129
	c-2.969,0.875-5.69,0.346-8.503-1.627c-0.608-0.486-2.802-2.967-4.923-5.365c-3.746-4.234-8.597-9.719-13.953-15.096
	c2.149-3.518,4.438-7.514,6.873-12.049c9.777-18.207,17.443-36.932,17.45-36.953c0.854-1.841,20.828-45.332,6.831-67.288
	C119.04,8.279,110.121,4.157,97.717,4.157c-11.78,0-21.046,3.309-27.542,9.833c-6.474,6.5-9.451,15.328-10.812,24.395
	c-7.292,3.716-13.599,9.343-16.87,15.212C38.145,61.4,39.1,69.18,45.114,74.941c5.156,4.938,10.586,9.23,15.342,7.181
	c5.287-2.269,5.256-9.742,5.207-21.053c-0.023-5.381-0.049-11.557,0.559-17.667c4.89-1.899,10-2.652,14.341-1.527
	c6.848,1.77,10.33,8.048,10.355,18.66c0.04,15.861-3.084,25.994-9.273,30.115c-8.778,5.85-23.495-0.342-35.32-5.316
	c-5.483-2.305-10.219-4.296-13.967-4.93c-2.231-0.374-4.364-0.38-6.38-0.021c-5.136-5.697-12.997-10.591-24.965-11.346
	C0.671,69.014,0.337,69.014,0,69.004v7.414c0.183,0.007,0.362,0.004,0.546,0.016c7.453,0.469,13.545,2.874,18.217,7.172
	c-1.312,1.012-2.533,2.24-3.653,3.686c-9.597,12.369-9.3,37.627-4.417,48.617c2.409,5.422,5.588,6.76,7.831,6.928
	c4.358,0.324,8.549-2.09,11.74-6.811c6.851-10.133,9.365-31.002,1.48-47.053c-0.205-0.416-0.421-0.84-0.65-1.266
	c0.012,0.004,0.022,0.004,0.034,0.006c2.898,0.49,7.478,2.416,12.325,4.453c13.458,5.66,30.208,12.705,42.302,4.654
	c8.51-5.668,12.625-17.542,12.578-36.304c-0.044-18.896-9.99-24.288-15.912-25.82c-4.698-1.213-9.86-0.893-14.917,0.5
	c1.379-6.156,3.775-11.812,7.923-15.977c5.126-5.148,12.415-7.65,22.29-7.65c9.842,0,16.466,2.885,20.252,8.819
	c4.771,7.476,5.093,20.11,0.93,36.537c-3.265,12.9-8.18,23.535-8.3,23.805c-6.761,16.569-15.126,33.606-23.021,46.684
	c-8.902-8.158-18.569-14.924-26.623-14.924c-9.335,0-15.215,5.094-15.731,13.629c-0.766,12.709,10.562,30.424,20.201,31.592
	c4.601,0.553,11.719-1.191,23.524-18.602c5.017,5.111,9.479,10.158,12.521,13.594c3.583,4.051,5.081,5.727,6.164,6.486
	c3.25,2.277,6.635,3.422,10.105,3.422c1.586,0,3.189-0.238,4.811-0.717c15.018-4.438,26.944-28.971,34.843-48.135
	c4.673,4.258,9.161,7.303,12.484,9.287c4.621,2.76,10.73,4.996,17.622,6.366V121.849z M58.25,61.1c0.02,5.057,0.049,11.829-0.825,14
	c-0.86-0.322-2.958-1.466-7.183-5.513c-3.585-3.435-4.001-7.485-1.272-12.382c1.949-3.495,5.388-6.941,9.501-9.723
	C58.212,52.255,58.232,56.901,58.25,61.1z M24.122,131.874c-0.949,1.404-2.873,3.721-4.919,3.596
	c-3.111-1.398-6.963-19.818-2.252-35.324c1.585-5.217,3.769-8.826,6.529-10.805c0.574,0.918,1.11,1.889,1.609,2.904
	C31.495,105.28,29.721,123.595,24.122,131.874z M66.318,150.353c-4.838-0.586-14.276-14.125-13.693-23.787
	c0.187-3.102,1.303-6.662,8.331-6.662c6.07,0,14.605,6.41,22.586,13.902C76.625,144.247,70.338,150.798,66.318,150.353z
	 M154.961,100.3c-8.387-10.635-15.221-26.197-12.788-47.813c4.221-37.521,15.043-37.521,20.856-37.521
	c2.458,0,4.166,0.934,5.542,3.029C175.792,28.986,169.929,63.749,154.961,100.3z"/>
</svg>
